<?xml version="1.0" encoding="UTF-8" standalone="no"?>
<svg
   viewBox="231.5 495 18.529999 16.35"
   width="18.529999"
   height="16.35"
   version="1.1"
   id="svg1196"
   sodipodi:docname="iron_with_medium_heat_on_reverse_side_only.svg"
   inkscape:version="1.4.2 (ebf0e940, 2025-05-08)"
   xmlns:inkscape="http://www.inkscape.org/namespaces/inkscape"
   xmlns:sodipodi="http://sodipodi.sourceforge.net/DTD/sodipodi-0.dtd"
   xmlns="http://www.w3.org/2000/svg"
   xmlns:svg="http://www.w3.org/2000/svg">
  <sodipodi:namedview
     id="namedview1196"
     pagecolor="#ffffff"
     bordercolor="#000000"
     borderopacity="0.25"
     inkscape:showpageshadow="2"
     inkscape:pageopacity="0.0"
     inkscape:pagecheckerboard="0"
     inkscape:deskcolor="#d1d1d1"
     inkscape:zoom="15.266055"
     inkscape:cx="41.300781"
     inkscape:cy="7.2382812"
     inkscape:window-width="1920"
     inkscape:window-height="1022"
     inkscape:window-x="0"
     inkscape:window-y="30"
     inkscape:window-maximized="0"
     inkscape:current-layer="svg1196" />
  <defs
     id="defs1">
    <style
       id="style1">.cls-1{letter-spacing:-.04em;}.cls-2{letter-spacing:-.02em;}.cls-3{fill:#231815;}.cls-4{fill:#fff;}.cls-5{letter-spacing:-.02em;}.cls-6{font-family:AvenirNextCondensed-Heavy, 'Avenir Next Condensed';font-size:9px;font-weight:800;}.cls-7{letter-spacing:-.03em;}.cls-8{stroke:#fff;stroke-miterlimit:10;}.cls-9{letter-spacing:-.01em;}.cls-10{fill:#040000;}.cls-11{letter-spacing:-.04em;}.cls-12{letter-spacing:-.02em;}.cls-13{letter-spacing:0em;}</style>
    <clipPath
       id="clip_icon_038">
      <rect
         x="231.5"
         y="495"
         width="54.5"
         height="42.5"
         id="rect1" />
    </clipPath>
  </defs>
  <line
     class="st2"
     x1="236.48"
     y1="495.5"
     x2="248.17"
     y2="495.5"
     id="line67"
     style="fill:none;stroke:#231815;stroke-linecap:round;stroke-miterlimit:10" />
  <line
     class="st2"
     x1="249.53"
     y1="510.84998"
     x2="248.17"
     y2="495.5"
     id="line68"
     style="fill:none;stroke:#231815;stroke-linecap:round;stroke-miterlimit:10" />
  <line
     class="st2"
     x1="232"
     y1="510.84998"
     x2="249.52"
     y2="510.84998"
     id="line69"
     style="fill:none;stroke:#231815;stroke-linecap:round;stroke-miterlimit:10" />
  <path
     class="st2"
     d="m 248.7,502.8 h -11.56 c -4.92,0.87 -5.14,8.05 -5.14,8.05"
     id="path69"
     style="fill:none;stroke:#231815;stroke-linecap:round;stroke-miterlimit:10" />
  <path
     d="m 238.61,506.96 c 0,0.23 -0.19,0.42 -0.42,0.42 -0.23,0 -0.42,-0.19 -0.42,-0.42 0,-0.23 0.19,-0.42 0.42,-0.42 0.23,0 0.42,0.19 0.42,0.42"
     id="path70" />
  <path
     class="st2"
     d="m 238.61,506.96 c 0,0.23 -0.19,0.42 -0.42,0.42 -0.23,0 -0.42,-0.19 -0.42,-0.42 0,-0.23 0.19,-0.42 0.42,-0.42 0.23,0 0.42,0.19 0.42,0.42 z"
     id="path71"
     style="fill:none;stroke:#231815;stroke-linecap:round;stroke-miterlimit:10" />
  <path
     d="m 244.86,506.96 c 0,0.23 -0.19,0.42 -0.42,0.42 -0.23,0 -0.42,-0.19 -0.42,-0.42 0,-0.23 0.19,-0.42 0.42,-0.42 0.23,0 0.42,0.19 0.42,0.42"
     id="path72" />
  <path
     class="st2"
     d="m 244.86,506.96 c 0,0.23 -0.19,0.42 -0.42,0.42 -0.23,0 -0.42,-0.19 -0.42,-0.42 0,-0.23 0.19,-0.42 0.42,-0.42 0.23,0 0.42,0.19 0.42,0.42 z"
     id="path73"
     style="fill:none;stroke:#231815;stroke-linecap:round;stroke-miterlimit:10" />
</svg>
